<svg width="25" height="24" viewBox="0 0 25 24" fill="none" xmlns="http://www.w3.org/2000/svg">
<path d="M9.69665 21.69L12.0266 19.73C12.3766 19.43 12.9566 19.43 13.3066 19.73L15.6366 21.69C16.1766 21.96 16.8366 21.69 17.0366 21.11L17.4766 19.78C17.5866 19.46 17.4766 18.99 17.2366 18.75L14.9666 16.47C14.7966 16.31 14.6666 15.99 14.6666 15.76V12.91C14.6666 12.49 14.9766 12.29 15.3666 12.45L20.2766 14.57C21.0466 14.9 21.6766 14.49 21.6766 13.65V12.36C21.6766 11.69 21.1766 10.92 20.5566 10.66L14.9666 8.25001C14.8066 8.18001 14.6666 7.97001 14.6666 7.79001V4.79001C14.6666 3.85001 13.9766 2.74001 13.1366 2.31001C12.8366 2.16001 12.4866 2.16001 12.1866 2.31001C11.3466 2.74001 10.6566 3.86001 10.6566 4.80001V7.80001C10.6566 7.98001 10.5166 8.19001 10.3566 8.26001L4.77665 10.67C4.15665 10.92 3.65665 11.69 3.65665 12.36V13.65C3.65665 14.49 4.28665 14.9 5.05665 14.57L9.96665 12.45C10.3466 12.28 10.6666 12.49 10.6666 12.91V15.76C10.6666 15.99 10.5366 16.31 10.3766 16.47L8.10665 18.75C7.86665 18.99 7.75665 19.45 7.86665 19.78L8.30665 21.11C8.48665 21.69 9.14665 21.97 9.69665 21.69Z" stroke="#82898F" stroke-width="1.5" stroke-linecap="round" stroke-linejoin="round"/>
</svg>
