<svg width="25" height="24" viewBox="0 0 25 24" fill="none" xmlns="http://www.w3.org/2000/svg">
<path d="M20.1933 8.09009C20.1933 8.51009 20.1633 8.92009 20.1133 9.31009C19.6533 9.11009 19.1533 9.00009 18.6233 9.00009C17.4033 9.00009 16.3233 9.59008 15.6533 10.4901C14.9733 9.59008 13.8933 9.00009 12.6733 9.00009C10.6233 9.00009 8.96333 10.6701 8.96333 12.7401C8.96333 15.4201 10.3833 17.4701 11.9633 18.8601C11.9133 18.8901 11.8633 18.9001 11.8133 18.9201C11.5133 19.0301 11.0133 19.0301 10.7133 18.9201C8.12333 18.0301 2.33333 14.3501 2.33333 8.09009C2.33333 5.33009 4.55332 3.1001 7.29332 3.1001C8.92332 3.1001 10.3633 3.88009 11.2633 5.09009C12.1733 3.88009 13.6133 3.1001 15.2333 3.1001C17.9733 3.1001 20.1933 5.33009 20.1933 8.09009Z" stroke="#82898F" stroke-width="1.5" stroke-linecap="round" stroke-linejoin="round"/>
<path d="M22.3333 12.74C22.3333 17.42 18.0033 20.18 16.0633 20.84C15.8333 20.92 15.4633 20.92 15.2333 20.84C14.4033 20.56 13.1333 19.89 11.9633 18.86C10.3833 17.47 8.96333 15.42 8.96333 12.74C8.96333 10.67 10.6233 9 12.6733 9C13.8933 9 14.9733 9.58999 15.6533 10.49C16.3233 9.58999 17.4033 9 18.6233 9C19.1533 9 19.6533 9.11 20.1133 9.31C21.4233 9.89 22.3333 11.2 22.3333 12.74Z" stroke="#82898F" stroke-width="1.5" stroke-linecap="round" stroke-linejoin="round"/>
</svg>
